<svg xmlns="http://www.w3.org/2000/svg" viewBox="0 0 1417.32 566.93"><defs><style>.cls-1{fill:#e0e0e0;}.cls-2{fill:#70bf44;}</style></defs><g id="logo"><path class="cls-1" d="M1398.06,213.67v-1.83l-5.43-8.15v-.5l-1-1-2.84-4.25-3-1.5a31.81,31.81,0,0,0-10.21-6.5c-1.83-.69-3.42-1.25-4.79-1.71l-.71-.24-.72-.18a26.5,26.5,0,0,0-6.4-.82,21.15,21.15,0,0,0-9.51,2.19c-1.08.54-2.18,1.11-3.28,1.73h-1.72l-5.14,4.72A109.08,109.08,0,0,0,1327.38,214c-3,4.41-5.7,8.53-8,12.31a28.38,28.38,0,0,0-4.61-19c-3.48-5.22-6.48-8.71-9.65-11.21a41.61,41.61,0,0,0-12.64-7.44,48.84,48.84,0,0,0-11.44-3.46,30.4,30.4,0,0,0-5.79-.58,25.38,25.38,0,0,0-20.93,10.75,83.49,83.49,0,0,0-5.59,8.81,32.3,32.3,0,0,0-5.31-5.2,36,36,0,0,0-15.21-7.39c-3-.64-5.88-1.19-8.63-1.66l-.47-.07a49,49,0,0,0-6.73-.47,47.92,47.92,0,0,0-6.32.42,65,65,0,0,0-22.24,6.58c1.32-2.38,2.63-4.69,3.93-6.91,6.34-10.89,12.58-19.69,18.52-26.16,4.75-5.17,7.58-6.42,8.31-6.67a21.83,21.83,0,0,0,15.13-8,19.66,19.66,0,0,0,5.42-13.39v-2.75l-.26-1.52c-3.1-17.9-10.88-29.7-23.16-35.08-8.7-3.79-17-5.72-24.66-5.72a37.67,37.67,0,0,0-7.19.61h-2.38l-1.8.6h-.19l-2.42.69c-9.5,2.72-18.26,9.42-26.77,20.48a227.83,227.83,0,0,0-19.69,31.12c-6.27,11.71-12.31,24.52-17.94,38.09-5.52,13.27-10.48,25.88-14.75,37.48-2.6,7.05-4.88,13.35-6.9,19-.9-.74-1.85-1.45-2.85-2.12a33.62,33.62,0,0,0-16.83-5.65,52.69,52.69,0,0,0-1.28-11.18,37.6,37.6,0,0,0-12-20.38,38.42,38.42,0,0,0-18.61-9.26,59.49,59.49,0,0,0-9-1.18q-1,0-2,0c-13.42,0-25.85,4.8-37,14.27q-4.92,4.2-9.31,8.5A35.46,35.46,0,0,0,970.31,199,29.24,29.24,0,0,0,948.52,189a30.34,30.34,0,0,0-3.12.16,60.76,60.76,0,0,0-15,3.46L926.8,194l-.41.41a22.84,22.84,0,0,0-5.08,2.62A147.55,147.55,0,0,0,899,210.11a30.35,30.35,0,0,0-1.64-2.79c-3.54-5.3-6.71-8.94-9.94-11.44a40.31,40.31,0,0,0-9.1-5.65c-.73-.31-1.33-.57-1.82-.8a24.66,24.66,0,0,0-2.82-1.36,87.35,87.35,0,0,0,10.23-7.89c10.37-9.37,12.83-22.49,6.43-34.23l-.29-.54-.33-.52c-5.25-8.23-13.37-13.94-24.14-17a66.07,66.07,0,0,0-17.88-2.41l-.53,0a42.56,42.56,0,0,0-8.21-17.11,49.23,49.23,0,0,0-14.79-12.27,47.61,47.61,0,0,0-17-5.29,106.14,106.14,0,0,0-11.6-.71c-4.91,0-10.28.24-15.09,2.36-8.89,2.72-17.12,9.1-25.05,19.42a235.57,235.57,0,0,0-19.63,30.7c-6.28,11.51-12.31,24-17.93,37.11-.87,2-1.71,4-2.54,6a34.49,34.49,0,0,0-7.14-2.52c-2.47-.56-4.45-1-6-1.41l-2.16-.55h-9.49l-.62,0c-16,1.11-31.46,8.91-46,23.2-.84.82-1.65,1.68-2.47,2.53a37.18,37.18,0,0,0-6-8.05A29.24,29.24,0,0,0,613.7,189a30.34,30.34,0,0,0-3.12.16,60.76,60.76,0,0,0-15,3.46L592,194l-.41.41a23.06,23.06,0,0,0-5.08,2.62,147.55,147.55,0,0,0-22.33,13.07,30.35,30.35,0,0,0-1.64-2.79c-3.54-5.3-6.71-8.94-9.94-11.44a40.31,40.31,0,0,0-9.1-5.65c-.72-.31-1.33-.57-1.81-.8-3.19-1.8-7.21-3.07-13.35-4.25a31.38,31.38,0,0,0-5.73-.55,25.65,25.65,0,0,0-22.15,12.28l-.37.59-.32.62c-5,9.67-9.36,18.2-13.19,26.07-1.18,2.42-2.33,4.86-3.47,7.3a49,49,0,0,0-10.33-7.68l-.57-.57-2.26-1-2.22-1.17c0-.33-.09-.65-.14-1a36.44,36.44,0,0,0-14.51-23.65,35.91,35.91,0,0,0-14.55-7.24q-3.69-.85-6-1.42l-1.07-.27-1.09-.14a52,52,0,0,0-6.34-.4c-12.43,0-24.16,4.54-34.83,13.49a160.17,160.17,0,0,0-15,14.22,34.32,34.32,0,0,0-9-15.76A29.24,29.24,0,0,0,343.43,189a30.34,30.34,0,0,0-3.12.16,61.13,61.13,0,0,0-15,3.45L321.71,194l-.41.41a23.38,23.38,0,0,0-5.09,2.63,113.58,113.58,0,0,0-13.68,7.7,42.19,42.19,0,0,0-17.26-14.53c-.72-.3-1.32-.56-1.81-.79-3.18-1.8-7.2-3.07-13.34-4.25a31.47,31.47,0,0,0-5.73-.55l-.51,0c.55-2.61,1-5.14,1.25-7.56a100,100,0,0,0,.64-11c0-15.39-3.69-28.42-11-38.75a71.24,71.24,0,0,0-25.16-22.24A97.76,97.76,0,0,0,201,95.4,142.61,142.61,0,0,0,176.72,93c-22.56,0-42.24,3-58.5,9.08-15.59,5.77-28.74,12.22-39.09,19.19C68.32,128.55,60.42,135.4,55,142.2l-1,1.24H51l-5,9.9a40,40,0,0,0-4,18.1,60.71,60.71,0,0,0,4.84,23.64,103.87,103.87,0,0,0,9.31,17.62,83.4,83.4,0,0,0,10.18,12.79,46.57,46.57,0,0,0,5.07,4.56q-3.36,7.09-6.42,14.14c-4.23,9.74-7.69,18.62-10.29,26.38-1.11,3-2.21,6.12-3.28,9.33a84.18,84.18,0,0,0-3,11.59,38.31,38.31,0,0,0-4.46,1,42.48,42.48,0,0,0-15.52,8.14c-9,7.3-10.86,15.19-10.86,20.53a66,66,0,0,0,2.35,19l.15.49c.85,2.55,1.67,4.81,2.51,6.89l.19.44a78,78,0,0,0,18,26.1A90.54,90.54,0,0,0,63,389.54a87.27,87.27,0,0,0,24.06,7.67A133.26,133.26,0,0,0,108.25,399a152.06,152.06,0,0,0,46.93-7.24,125.73,125.73,0,0,0,39.91-21.11,106.32,106.32,0,0,0,22.2-24.16,66.1,66.1,0,0,0,16.09,9.16c6.92,2.87,15.51,5,26.22,6.37a18.91,18.91,0,0,0,5.22.72,20.17,20.17,0,0,0,8.94-2.12l1.05-.52,1-.64a30.13,30.13,0,0,0,9.09-10l.34-.57.3-.6a26.12,26.12,0,0,0,2.16-16.92l-.22-1.12-.36-1.09c-1-3.11-1.14-6.77-.3-11.21A82.06,82.06,0,0,1,292.51,300l.78-1.73a35,35,0,0,0,12.61,5.35,64,64,0,0,0,13.23,1.36c1.13,0,2.28,0,3.39-.09,2.24-.1,4.43-.32,6.58-.61a79.69,79.69,0,0,0-.87,16.65A52.38,52.38,0,0,0,337,347.67c6.13,9,15.72,14.91,28.4,17.45a63.84,63.84,0,0,0,12.89,1.36,55.76,55.76,0,0,0,32.34-10.22q3-2.07,5.81-4.3c5.75,7.46,12.45,12.88,19.92,16.13a61.54,61.54,0,0,0,25.9,5.83,31.42,31.42,0,0,0,4.46.32c9.58,0,17.45-4.87,21-12.85a21.14,21.14,0,0,0,2.05-6.47c.59.25,1.16.51,1.77.76,6.91,2.87,15.51,5,26.21,6.37a18.91,18.91,0,0,0,5.22.72,20.21,20.21,0,0,0,9-2.12l1-.52,1-.64a27.51,27.51,0,0,0,6.79-6.53,26.16,26.16,0,0,0,9.08,8.78l.2.12a61,61,0,0,0,20.56,7.61,85.62,85.62,0,0,0,14,1.21c1.15,0,2.28,0,3.43-.08a67.92,67.92,0,0,0,15.66-2.52c3.69-1.09,6.74-2,9.33-2.9l.53-.18.52-.21a22.86,22.86,0,0,0,7.29-4.67l.58.29a35,35,0,0,0,13.92,4.86A63.57,63.57,0,0,0,648,366.48a55.67,55.67,0,0,0,32.33-10.23c1.88-1.3,3.73-2.66,5.53-4.06a65.88,65.88,0,0,0,11.78,12.68,21.06,21.06,0,0,0-7.46,6.86,26.41,26.41,0,0,0-4.66,11.35c-3.5,19.23.54,36.62,11.73,50.34S726.58,454.2,751,454.2l2.49,0A136.62,136.62,0,0,0,785.64,450a246,246,0,0,0,30.25-9.44c9-3.49,17.43-7,25-10.3s13.27-6.11,17.33-8.34c5.07-2.53,9.88-4.7,14.32-6.47l13.31-5.33c4.26-1.55,8.44-3.14,12.42-4.73A191.7,191.7,0,0,1,922.59,399c5.85-1.12,11.34-2,16.38-2.74a92.2,92.2,0,0,0,2.09,34.13A64.48,64.48,0,0,0,961.77,464c9.79,8.5,23,12.82,39.36,12.82,2.57,0,5.27-.11,8-.32,16.21-1,30.78-5,43.29-11.83a148.49,148.49,0,0,0,30.54-22l.49-.47.46-.5c5.14-5.67,10.36-13.75,16-24.71,6.54-12.81,8.55-27.71,6-44.28a51.52,51.52,0,0,0-1.18-5.77c.89.29,1.77.56,2.65.77a49.37,49.37,0,0,0,7,1.3,22.71,22.71,0,0,0,4.54.46,21.56,21.56,0,0,0,19.69-13c.24-.54.48-1.1.7-1.67a49.41,49.41,0,0,0,10.8,6.67l.87.4,5.92,2a50.94,50.94,0,0,0,9.27,2.6,38.4,38.4,0,0,0,6.7.58,45.27,45.27,0,0,0,5.12-.3h1.48l.78-.07a59.71,59.71,0,0,0,34.19-14.17,94.53,94.53,0,0,0,7.69-7.35c8.83,12.14,22.48,18.74,39.25,18.74,1.62,0,3.31-.06,5-.18a28.58,28.58,0,0,0,11.41-2.75,37.26,37.26,0,0,0,14.11-7.85c.39-.29.77-.59,1.15-.9a31.75,31.75,0,0,0,6.7,7.81L1301,361l1.4.81a60.83,60.83,0,0,0,20.56,7.62,85.62,85.62,0,0,0,13.95,1.21c1.15,0,2.29,0,3.43-.08a72.35,72.35,0,0,0,15.7-2.45c3.94-1.09,7.17-2.07,9.89-3l.54-.18.52-.21c11-4.43,16.21-15.85,12.17-26.54a38.89,38.89,0,0,0-4-7.84l-.33-.49-.36-.47c-2.76-3.6-4.15-9.18-4.15-16.56a94,94,0,0,1,5.11-29.63l.22-.66.17-.68a53.13,53.13,0,0,1,2.5-7.46c1.23-3,2.57-5.95,4-8.76l.48-1,.37-1a92.32,92.32,0,0,1,5.82-13.18c2.41-4.46,4.56-8.19,6.37-11.1l.25-.39.23-.41A30.72,30.72,0,0,0,1398.06,213.67ZM147.65,297.55a73.45,73.45,0,0,1-11.11,20.05,53.51,53.51,0,0,1-17,14.36,33.08,33.08,0,0,1-16.38,3.91c-.89,0-1.8,0-2.73-.08,4.43-1.88,9.34-5.77,13.23-13.54a98.77,98.77,0,0,0,5.89-15c1.54-5,2.89-9.94,4-14.61,1-4,1.63-6.94,2.07-9q3-9.65,5.87-18.14a61.82,61.82,0,0,0,13.38,1.32h3.33c.18.3.38.63.58,1,1.72,3.15,2.59,7.32,2.59,12.39C151.37,284.88,150.12,290.69,147.65,297.55ZM185,176.06a110.73,110.73,0,0,1-15.5,20.56,108.83,108.83,0,0,1-14.84,13c.53-1,1-2,1.55-2.95a154,154,0,0,1,8.7-14.9c3.23-4.62,6.95-10.88,6.95-18.23,0-11.59-6.53-17.13-10.35-19.38.85-.42,1.71-.83,2.56-1.23,8-3.69,13.07-4.46,15.88-4.46,10.74,0,10.74,1.9,10.74,6.5A40,40,0,0,1,185,176.06Zm34,68.76c-.55,1.29-1.1,2.58-1.63,3.87-.54-.65-1.08-1.31-1.64-1.93C216.84,246.13,217.93,245.48,219,244.82ZM413.07,277a146.14,146.14,0,0,1-12.33,8.74,32,32,0,0,1-4.19,2.32,22,22,0,0,1,.35-2.89,61.36,61.36,0,0,1,5.66-15.81q1.19-2.37,2.43-4.59a19.12,19.12,0,0,0,9.05,8.89A32.32,32.32,0,0,0,413.07,277Zm272.87-16.47v5.56c-.05.2-.1.4-.14.6-.26.77-.51,1.53-.74,2.23a6.5,6.5,0,0,1-.27.75l-.85,1.73s-1.17,4.62-1.46,5.8a146.11,146.11,0,0,1-12.07,8.54,35.65,35.65,0,0,1-3.62,2.05,58,58,0,0,1,1.45-12.19,62.19,62.19,0,0,1,3.67-10.46,67.72,67.72,0,0,1,5.23-9.54,43.79,43.79,0,0,1,5.3-6.62,15.73,15.73,0,0,1,1.57-1.42l1.16-.56c.36.49.75,1,1.19,1.7.22.58,1.1,3.33,1,10.4Zm137.44,93.87c1,.45,2,.89,3,1.32,1.66.69,3.44,1.34,5.3,1.94-4.23,1.15-8.79,2.31-13.65,3.48A20.75,20.75,0,0,0,823.38,354.36Zm-69.78,17a21,21,0,0,0,3.51-5.11,57.83,57.83,0,0,0,11.39,3.19c1.41.23,2.81.42,4.19.59-3.51.44-6.83.76-9.9.95C759.56,371.22,756.49,371.34,753.6,371.4Zm253.42-89a58.06,58.06,0,0,1-10.15,6l-.08,0a63.9,63.9,0,0,1,1.45-11.11,71.13,71.13,0,0,1,5.49-14.5c.24.52.49,1,.76,1.56a19.58,19.58,0,0,0,12.45,10.46C1013.72,277.44,1010.39,280,1007,282.41Zm202,6.22-1.55.28a40.35,40.35,0,0,1-7,.63,34.9,34.9,0,0,1-6.49-.6l-.56-.1-.57-.07a16.84,16.84,0,0,1-5-1.87,33.37,33.37,0,0,1-5.17-3.2,25.19,25.19,0,0,0,4.27.35h0c.1,0,1.13,0,4.52.46a59,59,0,0,0,7.45.45c2.42,0,5-.13,7.63-.39a60.5,60.5,0,0,0,8.94-1.52c-.47,2-.9,3.91-1.28,5.8a33.13,33.13,0,0,0-3.6-.22Z"/><path class="cls-2" d="M39.24,340.77c-.71-1.76-1.42-3.72-2.12-5.84a49.18,49.18,0,0,1-1.6-13.8q0-3.18,4.25-6.63a24.7,24.7,0,0,1,9-4.78,16.63,16.63,0,0,1,8.76-.27q4,1.08,4,6.37v2.66a35.2,35.2,0,0,0,10.08,24.15q9.55,9.81,25.48,10.88,17.52,1.59,31.05-5.84a71.61,71.61,0,0,0,22.56-19.11,90.79,90.79,0,0,0,13.8-24.95q4.78-13.26,4.78-23.35,0-12.21-4.78-21T153.9,248.41a25.06,25.06,0,0,1-4.78.53h-4.25q-17.51,0-17.51-7.43c0-1.77,1.23-3.89,3.71-6.37s6.19-3.72,11.15-3.72a52.6,52.6,0,0,1,5.31.27q2.64.27,5.31.8l10.61-7.17a123.33,123.33,0,0,0,18.85-16.19,128,128,0,0,0,18-23.89A57.93,57.93,0,0,0,208.57,155q0-24.42-28.66-24.42-10.09,0-23.36,6.1a122.6,122.6,0,0,0-26,16.46A149.33,149.33,0,0,0,107.19,177a83.73,83.73,0,0,0-14.87,27.87,12.55,12.55,0,0,1-2.12,5.84q-3.18,5.85-6.37,5.84c-.71,0-2.31-1.24-4.78-3.72a66.44,66.44,0,0,1-8-10.08,86.06,86.06,0,0,1-7.7-14.6,42.87,42.87,0,0,1-3.45-16.72,22.24,22.24,0,0,1,2.13-10.08q.52,0,6.9-8t20.17-17.25q13.8-9.28,35.3-17.25t52.28-8A126.89,126.89,0,0,1,198,113.05a79.61,79.61,0,0,1,23.35,8,53.31,53.31,0,0,1,18.85,16.72q7.68,10.89,7.69,28.4a82.91,82.91,0,0,1-.53,9,71.16,71.16,0,0,1-2.12,10.61A67.27,67.27,0,0,1,233,209.13q-7.44,9.56-21,18.84t-35.83,14.6a63.2,63.2,0,0,1,6.9,2.39,49.54,49.54,0,0,1,13.54,8.23,59.81,59.81,0,0,1,13,15.39q5.84,9.56,5.84,24.42A76,76,0,0,1,207,328.83a87.33,87.33,0,0,1-23.09,27.87,107.19,107.19,0,0,1-34.24,18,133.27,133.27,0,0,1-41.4,6.37,114.81,114.81,0,0,1-18.31-1.59,68.84,68.84,0,0,1-19.12-6.1A72.26,72.26,0,0,1,53,360.94,59.88,59.88,0,0,1,39.24,340.77Zm26.54-35c-.71-.35-1-1.5-.79-3.45s.53-4.42,1.06-7.43a63.87,63.87,0,0,1,2.39-9.29c1.06-3.19,2.12-6.19,3.18-9q3.7-11.15,9.82-25.21t13.27-27.87q7.17-13.8,15.13-26a148.65,148.65,0,0,1,15.39-20.17,13.12,13.12,0,0,1,4-4.25,26.18,26.18,0,0,1,7.17-2.92,49.51,49.51,0,0,1,12.74-1.32,7.12,7.12,0,0,1,3.19.79c1.06.53,1.59,1.86,1.59,4,0,1.78-1.25,4.43-3.72,8a176.67,176.67,0,0,0-9.82,16.72Q134.26,209.67,126,229T108.25,279.2c-.36,1.77-1.06,4.86-2.13,9.29s-2.3,8.94-3.71,13.53a79.57,79.57,0,0,1-4.78,12.21q-2.66,5.31-5.31,5.31-4.25,0-12.21-2.92T67.9,308.39Z"/><path class="cls-2" d="M264.07,344.56q-15.09-1.81-23.83-5.43T226.67,331a19.38,19.38,0,0,1-6-10.26,41.81,41.81,0,0,1-.6-12.37q2.41-15.08,5.73-28.05a187.64,187.64,0,0,1,8.14-24.74q4.83-11.76,10.56-23.52t13-25.64q3-4.83,9.35-3.62c4.23.81,6.94,1.61,8.15,2.41.8.41,1.9.91,3.32,1.51a24,24,0,0,1,5.12,3.31q2.42,1.81,6,7.25t-.61,12.66c-2,3.23-4.22,7.24-6.63,12.07s-4.83,10.06-7.24,15.69q-1.21,3-2.41,5.73c-.82,1.81-1.62,3.72-2.42,5.73a101.27,101.27,0,0,0,5.73-9.35,126.32,126.32,0,0,1,10.56-15.39,142.09,142.09,0,0,1,16.29-17.19,88.5,88.5,0,0,1,22.92-14.78,5.54,5.54,0,0,1,3-1.51,5.38,5.38,0,0,0,3-1.51A42.76,42.76,0,0,1,342.19,207q5.73-.6,10,4.22,6.63,6.65,4.52,14.78a58.85,58.85,0,0,1-5.12,13.58c-1.61,3.62-3.43,7.24-5.43,10.86a76.64,76.64,0,0,0-4.83,10.25,24.6,24.6,0,0,0-1.81,8.45,5.81,5.81,0,0,0,3.62,5.43,13.46,13.46,0,0,1,1.81,4.22q.6,2.42-2.41,3.62c-2.42.81-5.43,1.72-9.05,2.72a53,53,0,0,1-11.77,1.8,46.74,46.74,0,0,1-12.06-.9,16.3,16.3,0,0,1-9.35-5.43,42.83,42.83,0,0,1-4.23-6.33q-1.8-3.31,4.23-15.39v-1.2c-.81-.4-1.42-.4-1.81,0A90.32,90.32,0,0,0,287,272.47a149.12,149.12,0,0,0-10.86,20.21,99.22,99.22,0,0,0-6.93,22q-2.13,11.16.9,20.21a8.27,8.27,0,0,1-.6,5.43,13,13,0,0,1-3.62,4.22C265.07,345,264.47,345,264.07,344.56Z"/><path class="cls-2" d="M477,263.12a177.94,177.94,0,0,0-10.86,28.95,92.49,92.49,0,0,0-4.53,29.26A45.77,45.77,0,0,0,470.39,347l1.21,2.42a4,4,0,0,1,0,4.22q-1.22,3.61-7.84,2.41-11.47,0-19.91-4.22-7.25-3-13.27-10.86t-6-22.32a108.77,108.77,0,0,1-24.13,22.92q-13.89,9.65-31.37,6c-8.05-1.62-13.78-4.92-17.2-10a34.72,34.72,0,0,1-5.73-17.8,69.54,69.54,0,0,1,2.72-22.32A163,163,0,0,1,357.27,274a193.85,193.85,0,0,1,11.17-21.41,151.92,151.92,0,0,1,10.85-16,130.47,130.47,0,0,1,21.42-22.32q13-10.86,27.45-9.05c1.6.41,3.72.91,6.34,1.51a18.2,18.2,0,0,1,7.54,3.92A18.54,18.54,0,0,1,449.88,223a36.69,36.69,0,0,1-1.21,16v.61h.61q5.43-4.22,12.66-1.21a1.71,1.71,0,0,0,1.21.6q10.26,5.43,13.27,14.48C478,256.28,478.23,259.49,477,263.12Zm-45.25,14.47c1.21-4.42,2.61-8.84,4.23-13.27s3.41-8.84,5.42-13.27a37,37,0,0,1-6.33,5.13,14.88,14.88,0,0,1-8.15,2.11q-5.43,0-6-1.81c-.81-1.6-.81-3.62,0-6l1.81-1.81.6-.61q2.42-3,3.93-9.65t-3.93-10.25q-4.83-3-11.46,1.2A55.07,55.07,0,0,0,398.6,242a112.15,112.15,0,0,0-12.06,19.31,78.44,78.44,0,0,0-7.25,20.51c-1.2,6.44-.81,12.06,1.21,16.89s6.43,7.45,13.27,7.84q6.64.61,16.59-5.73a161.14,161.14,0,0,0,18.4-13.57,15.25,15.25,0,0,0,1.51-4.83A14.91,14.91,0,0,1,431.78,277.59Z"/><path class="cls-2" d="M522.27,344.56q-15.07-1.81-23.83-5.43T484.87,331a19.36,19.36,0,0,1-6-10.26,41.8,41.8,0,0,1-.61-12.37q2.41-15.08,5.73-28.05a186.19,186.19,0,0,1,8.15-24.74q4.81-11.76,10.56-23.52t13-25.64q3-4.83,9.35-3.62t8.14,2.41c.8.41,1.91.91,3.32,1.51a24.32,24.32,0,0,1,5.13,3.31c1.6,1.21,3.62,3.63,6,7.25s2.21,7.84-.6,12.66c-2,3.23-4.23,7.24-6.64,12.07s-4.83,10.06-7.24,15.69q-1.21,3-2.41,5.73t-2.41,5.73c1.2-1.6,3.71-4.73,7.54-9.35a168.72,168.72,0,0,1,14.78-15.39q9-8.43,20.51-17.19a128.35,128.35,0,0,1,24.73-14.78,5.47,5.47,0,0,1,3-1.51,5.38,5.38,0,0,0,3-1.51A42.76,42.76,0,0,1,612.46,207q5.73-.6,10,4.22,6.63,6.65,4.52,14.78a58.85,58.85,0,0,1-5.12,13.58q-1.82,4.22-3.93,8.74t-4.52,9.36q-1.82,4.83-3.92,9.95t-3.92,9.95a130.14,130.14,0,0,0-5.73,35.3q-.31,17.19,8.14,27.45a13.7,13.7,0,0,1,1.81,4.22q.59,2.4-2.41,3.62c-2.42.8-5.34,1.71-8.75,2.71a49.12,49.12,0,0,1-11.47,1.81,64.48,64.48,0,0,1-13.57-.9,43,43,0,0,1-14.48-5.43,7.16,7.16,0,0,1-3.62-4.22,19.61,19.61,0,0,0-1.2-3.62q-.62-7.25.3-22.63t8.14-37.7q1.2-4.21,3-9.05a77.25,77.25,0,0,1,4.82-10.26v-1.2q-1.21-.6-1.8,0a156.06,156.06,0,0,0-13.58,11.16,74,74,0,0,0-12.37,14.78A78.55,78.55,0,0,0,530.72,312q-1.22,7.25-1.81,13.27c-.41,4-.6,7.24-.6,9.66,0,2.82-.21,4.62-.61,5.43a13,13,0,0,1-3.62,4.22C523.27,345,522.67,345,522.27,344.56Z"/><path class="cls-2" d="M737.64,286.64a141.82,141.82,0,0,0-6.33,34.69q-.9,17.21,8.14,29.86l1.21,2.42c.8,2,1,3.41.6,4.22q-1.21,3.63-7.84,2.42a50.54,50.54,0,0,1-19.91-6,43.76,43.76,0,0,1-13.27-12.67q-6-8.44-6-22.92a109.2,109.2,0,0,1-24.13,22.92q-13.89,9.65-31.38,6a16.81,16.81,0,0,1-9.05-3.62h-.6a6.37,6.37,0,0,1-1.51-.91,6.94,6.94,0,0,0-1.5-.9l-1.21-1.21a3.18,3.18,0,0,1-1.51-1.21,9.6,9.6,0,0,0-1.51-1.81q-11.44-13.26-8.44-36.19a138.07,138.07,0,0,1,14.47-45.25,151.59,151.59,0,0,1,28.66-39.21q17.19-16.89,34.69-18.1h6.64q2.4.6,6.33,1.51a18.14,18.14,0,0,1,7.54,3.92,13.85,13.85,0,0,1,4.83,4.82q1.2,1.82,1.81,6.64c.39,3.22,1,5.43,1.81,6.64q6-16.89,14.18-35.9t17.19-35.59a217.33,217.33,0,0,1,18.1-28.36q9-11.76,17.49-13.57c.8-.8,3.62-1.21,8.45-1.21a91.61,91.61,0,0,1,9.65.6A29.52,29.52,0,0,1,815.77,112a31.18,31.18,0,0,1,9.35,7.84q4.21,5.15,5.43,14.18v1.21A2.5,2.5,0,0,1,830,137a3.29,3.29,0,0,1-2.11,1.2,4.9,4.9,0,0,0-2.12.61q-7.23,1.8-18.7,14.48T782.89,186.2a458.5,458.5,0,0,0-25,46.15A330.75,330.75,0,0,0,737.64,286.64Zm-32.57-21.11q1.2-19.3-3.62-26.55T693,229.33h-.6a11.28,11.28,0,0,0-9-.9,61.22,61.22,0,0,0-6.64,2.71,22.44,22.44,0,0,0-6.94,5.13,61.43,61.43,0,0,0-7.54,9.35,84.44,84.44,0,0,0-6.63,12.07,80.66,80.66,0,0,0-4.83,13.87q-3.62,17.51-.3,25.64t13,9.35q6.63.61,16.59-5.73a162,162,0,0,0,18.4-13.57q.6-2.42,1.21-4.83c.39-1.6.8-3.21,1.2-4.83a24.91,24.91,0,0,0,1.21-3c.4-1.21.8-2.41,1.21-3.62a2.61,2.61,0,0,1,.3-1.21,4.2,4.2,0,0,0,.3-1.81,1.71,1.71,0,0,0,.6-1.2A1.72,1.72,0,0,1,705.07,265.53Z"/><path class="cls-2" d="M819.09,210c2,1.21,4.22,3.63,6.63,7.25s2.21,7.84-.6,12.66c-2,3.23-4.22,7.24-6.64,12.07s-4.82,10.06-7.23,15.69a86.36,86.36,0,0,0-4.23,9.95q-1.8,5.13-3.62,9.95a111.35,111.35,0,0,0-6,35.3q0,17.19,7.84,27.45a20.77,20.77,0,0,1,2.11,4.22c.61,1.6-.1,2.81-2.11,3.62-2.41.8-5.33,1.71-8.75,2.71A49,49,0,0,1,785,352.7a64.44,64.44,0,0,1-13.57-.9A42.87,42.87,0,0,1,757,346.37c-2-1.21-3.23-2.61-3.62-4.22a18.1,18.1,0,0,0-1.21-3.62q-1.2-8.44.3-25.95t11.16-43.43q10.26-28.35,19.61-44.95t10.56-17.79q3-4.83,9-3.62a38.44,38.44,0,0,1,8.45,2.41l3,1.51A30.44,30.44,0,0,1,819.09,210Zm55.5-55.5q3.61,6.64-2.71,12.37a84.83,84.83,0,0,1-16.29,11.16q-10,5.43-19.91,10.26t-12.37,9.05a3.45,3.45,0,0,1-2.41,1.2c-.81,0-2.32-.09-4.53-.3a23.85,23.85,0,0,1-8.14-2.71,16.44,16.44,0,0,1-7.24-6.64,19.58,19.58,0,0,1-3-8.75q-.6-5.11,4.23-13.57a39.34,39.34,0,0,1,16-15.38A62.94,62.94,0,0,1,839.9,144a51.08,51.08,0,0,1,20.81,1.2Q870.36,147.89,874.59,154.52Z"/><path class="cls-2" d="M857.09,344.56q-15.09-1.81-23.83-5.43T819.69,331a19.44,19.44,0,0,1-6-10.26,42.15,42.15,0,0,1-.6-12.37q2.41-15.08,5.73-28.05a186.19,186.19,0,0,1,8.15-24.74q4.82-11.76,10.56-23.52t13-25.64q3-4.83,9.35-3.62T868,205.2c.8.41,1.9.91,3.32,1.51A24.32,24.32,0,0,1,876.4,210c1.6,1.21,3.62,3.63,6,7.25s2.21,7.84-.6,12.66c-2,3.23-4.23,7.24-6.64,12.07s-4.83,10.06-7.24,15.69q-1.22,3-2.41,5.73t-2.42,5.73c1.21-1.6,3.72-4.73,7.55-9.35a167.37,167.37,0,0,1,14.78-15.39q9-8.43,20.51-17.19a128.35,128.35,0,0,1,24.73-14.78,5.47,5.47,0,0,1,3-1.51,5.44,5.44,0,0,0,3-1.51A42.76,42.76,0,0,1,947.28,207q5.73-.6,10,4.22,6.63,6.65,4.52,14.78a58.38,58.38,0,0,1-5.13,13.58q-1.8,4.22-3.92,8.74t-4.52,9.36q-1.82,4.83-3.92,9.95c-1.42,3.42-2.72,6.74-3.93,9.95a130.92,130.92,0,0,0-5.73,35.3q-.3,17.19,8.15,27.45a13.7,13.7,0,0,1,1.81,4.22q.58,2.4-2.41,3.62c-2.42.8-5.34,1.71-8.75,2.71a49.12,49.12,0,0,1-11.47,1.81,64.48,64.48,0,0,1-13.57-.9,43,43,0,0,1-14.48-5.43,7.13,7.13,0,0,1-3.62-4.22,19.61,19.61,0,0,0-1.2-3.62q-.62-7.25.3-22.63t8.14-37.7q1.2-4.21,3-9.05a76,76,0,0,1,4.82-10.26v-1.2q-1.22-.6-1.8,0A156.06,156.06,0,0,0,890,268.85a74,74,0,0,0-12.37,14.78A78.55,78.55,0,0,0,865.54,312q-1.21,7.25-1.81,13.27c-.41,4-.61,7.24-.61,9.66,0,2.82-.2,4.62-.6,5.43a13,13,0,0,1-3.62,4.22C858.09,345,857.49,345,857.09,344.56Z"/><path class="cls-2" d="M1088.15,375.33q3,19.29-4.22,33.48t-13.28,20.81a129.52,129.52,0,0,1-26.84,19.31q-15.39,8.44-35.9,9.65-22.93,1.82-34.38-8.14A46.69,46.69,0,0,1,958.44,426a74,74,0,0,1-1.5-28.95q2.1-14.49,6.33-21.12a127.83,127.83,0,0,0-21.11,1.81q-10.26,1.2-22.93,3.62a207.79,207.79,0,0,0-27.15,7.24q-6,2.4-12.67,4.83l-13.57,5.43q-7.55,3-16,7.23-5.43,3-16.29,7.85t-24.13,9.95a228.87,228.87,0,0,1-28,8.75,118.17,118.17,0,0,1-28.06,3.62q-30.15.6-42.22-14.18t-7.85-36.5c0-.81.61-2.11,1.81-3.92s3.42-1.91,6.64-.3q3.62,1.81,9.95,4.22t16.9,3.32a177.22,177.22,0,0,0,25.33,0,241.73,241.73,0,0,0,34.69-5.13q23.53-4.83,40.72-9.65t33.49-8.75q16.29-3.93,33.78-6.93t41.63-4.83a85.83,85.83,0,0,1,18.1.6,47.35,47.35,0,0,1,11.76,3.62q5.12,2.4,4.52,8.45a132.26,132.26,0,0,1-4.22,15.08,41,41,0,0,0-2.11,17.5q.9,8.43,9,14.17t29.26,5.73a63.54,63.54,0,0,0,20.51-4.82,106.13,106.13,0,0,0,18.4-10.56q10-6.94,17.8-20.81a6.55,6.55,0,0,0,1.21-3.62,3.88,3.88,0,0,0-3.62-4.23q-2.43-.6-11.77-.9a80.83,80.83,0,0,0-20.21,2.11,71.41,71.41,0,0,0-19.91,7.54,21.08,21.08,0,0,0-10.86,15.39,3.93,3.93,0,0,1-1.81,2.41c-.81.39-1.41.39-1.81,0a44.7,44.7,0,0,1-5.43-1.81,17.27,17.27,0,0,1-5.73-3.92,22.69,22.69,0,0,1-4.52-6.64,17.43,17.43,0,0,1-1.21-9.35q.6-8.46,8.15-15.08t19.6-9.65c-2-1.21-3-2.63-3-4.23a5.22,5.22,0,0,1,1.81-3.62,3.83,3.83,0,0,1,1.81-1.81q10.24-6.63,16-19.6a114.17,114.17,0,0,0,8.15-27.45,175.56,175.56,0,0,1-10.86,18.4,95.82,95.82,0,0,1-15.69,18.09,71,71,0,0,1-19.6,12.67q-10.57,4.53-23.23,2.12-18.11-3.63-21.42-18.1t1.21-32a168,168,0,0,1,13.57-35q9.06-17.49,16.29-26.54a147.92,147.92,0,0,1,20.81-21.42q12.36-10.55,26.85-10a54.63,54.63,0,0,1,6.34.9,20.69,20.69,0,0,1,10,5.13,19.84,19.84,0,0,1,6.33,10.86,38.78,38.78,0,0,1,.31,14.48q-.62.6-1.81,4.82a30.41,30.41,0,0,1-7.85,10.26,21.22,21.22,0,0,1-12.67,5.43c-3.61,0-5.63-.6-6-1.81-1.2-2-1.41-3.82-.6-5.43a3.92,3.92,0,0,1,1.81-1.81c.8-.4,1.71-1.6,2.71-3.62a38.94,38.94,0,0,0,2.42-6,11.38,11.38,0,0,0,0-6.34,8.42,8.42,0,0,0-3.92-5.12,8.89,8.89,0,0,0-6.34-1.21,26.59,26.59,0,0,0-6,1.81,28.32,28.32,0,0,0-4.83,2.71,26.72,26.72,0,0,0-2.71,2.11q-6,4.84-12.67,16.29a90.4,90.4,0,0,0-9.65,23.53q-3.63,17.5-.31,25.64t13,8.75q4.22,0,10.86-3a76.58,76.58,0,0,0,13.28-7.84q6.63-4.81,13-10a76.23,76.23,0,0,0,10-9.35,28.76,28.76,0,0,1,.6-6.63v-6q1.22-8.43,10.86-13.27a55.62,55.62,0,0,1,9.66-3,17,17,0,0,1,12.66,2.41c3.63,2.41,5.43,5.43,5.43,9.05a92.4,92.4,0,0,1,.31,12.67,100.8,100.8,0,0,1-1.51,12.67,187.66,187.66,0,0,1-5.73,22.92,88,88,0,0,1-15.39,29,48.94,48.94,0,0,1-7.54,8.14,55.15,55.15,0,0,1-8.14,5.73h12.06a16.29,16.29,0,0,1,3.32.31,14.74,14.74,0,0,0,2.71.3,56.87,56.87,0,0,1,17.2,6Q1086.34,362.66,1088.15,375.33Z"/><path class="cls-2" d="M1183.47,261.31q4.21-9.65,10.86-22.33a11.69,11.69,0,0,0,.6-3.62c0-2-2-2.41-6-1.2l-3.62,2.41c-.41,0-.6.1-.6.3s-.21.3-.61.3c-1.2.82-2.41,1.72-3.62,2.72s-2.62,2.32-4.22,3.92a22.92,22.92,0,0,0-3.92,3.62c-1,1.21-2.11,2.41-3.32,3.62a28.77,28.77,0,0,0-6.33,10.26,54.9,54.9,0,0,1-2.12,6v1.2q-1.8,9.06.61,15.69a26.75,26.75,0,0,0,7.54,11.16,51.29,51.29,0,0,0,11.16,7.54,33.78,33.78,0,0,0,10.86,3.62,55,55,0,0,0,19.91,0,15.42,15.42,0,0,1,8.14,2.41q3.91,2.43-.3,10.86a65.14,65.14,0,0,1-15.69,19,42,42,0,0,1-24.13,9.95h-1.81a23.75,23.75,0,0,1-7.54,0A33,33,0,0,1,1163,347l-5.43-1.81q-14.49-6.63-16.89-23.22t2.41-35.9a147.76,147.76,0,0,0-10.56,24.13,216.26,216.26,0,0,0-7.54,29,45.89,45.89,0,0,1-2.71,9.95c-1,2.21-2.72,2.92-5.13,2.11a24.82,24.82,0,0,1-5.43-.9,31.12,31.12,0,0,1-7.85-3.32,36.61,36.61,0,0,1-8.44-6.94,38.84,38.84,0,0,1-7.24-11.76,48.21,48.21,0,0,1-1.81-13.88,108.25,108.25,0,0,1,1.21-16,98.71,98.71,0,0,1,3.62-15.69q2.4-7.53,4.22-13,.6-2.4,4.83-14.78t10.55-29.56q6.35-17.19,14.48-36.8t17.2-36.5a209.85,209.85,0,0,1,18.09-28.66q9.06-11.76,17.5-14.17a9.57,9.57,0,0,0,2.41-.61,13.42,13.42,0,0,0,2.72-.3,20.73,20.73,0,0,1,3.92-.3q7.83,0,17.49,4.22T1217.25,134v1.21c0,.4-.4,1-1.2,1.81a4.09,4.09,0,0,1-3.62,1.81q-9.06,1.22-19.31,12.37t-20.81,29.25q-10.56,18.1-21.42,41.93t-21.72,50.38c2-2.42,5.73-7,11.16-13.88a251.05,251.05,0,0,1,19-21.11,186,186,0,0,1,23.53-19.91q12.66-9,25.33-10.26a30.66,30.66,0,0,1,8.45,0q3.61.62,7.84,1.51a18.24,18.24,0,0,1,7.85,3.92,14.51,14.51,0,0,1,5.73,10,33.87,33.87,0,0,1-.61,12.67,51.11,51.11,0,0,1-4.52,12.06,57.79,57.79,0,0,1-5.43,8.75,26.46,26.46,0,0,1-10.26,7.24,44.36,44.36,0,0,1-12.36,3,51.8,51.8,0,0,1-11.16,0,65.77,65.77,0,0,0-6.64-.61c-2,0-3.22-.6-3.62-1.81A3.8,3.8,0,0,1,1183.47,261.31Z"/><path class="cls-2" d="M1380.74,218.47a12.78,12.78,0,0,1-.6,11.46c-2,3.23-4.33,7.24-6.94,12.07a111.42,111.42,0,0,0-6.94,15.69q-2.41,4.83-4.52,9.95a70.35,70.35,0,0,0-3.32,9.95,111.07,111.07,0,0,0-6,35.3q0,17.19,7.84,27.45a20.77,20.77,0,0,1,2.11,4.22c.61,1.6-.1,2.81-2.11,3.62-2.41.8-5.43,1.71-9,2.71a53.63,53.63,0,0,1-11.76,1.81,64.53,64.53,0,0,1-13.58-.9,43,43,0,0,1-14.48-5.43q-4.21-3.62-4.22-7.84a110.31,110.31,0,0,1-.6-13,139.91,139.91,0,0,1,1.81-20.21q-6.64,10.26-13.58,19.3a74.91,74.91,0,0,1-14.17,14.48q-4.85,4.23-9,4.83a11.75,11.75,0,0,1-6,1.81q-22.93,1.8-31.67-15.69t1.51-51.88a18.88,18.88,0,0,1,2.41-6.64,2.77,2.77,0,0,1,.3-1.21,2.65,2.65,0,0,0,.31-1.2q10.25-28.35,19.6-44.95t10.56-17.79q3-4.83,9-3.62c4,.81,6.64,1.61,7.84,2.41a23,23,0,0,1,8.45,4.82c1.6,1.21,3.62,3.63,6,7.25s2.42,7.84,0,12.66c-2,3.23-4.22,7.24-6.64,12.07s-4.82,10.06-7.23,15.69q-1.21,3-2.42,5.73t-2.41,5.73q0,.6-.3.6c-.21,0-.3.21-.3.6-.41,2-1.12,4.93-2.11,8.75a56.47,56.47,0,0,0-1.82,11.46,32.93,32.93,0,0,0,.91,10.26q1.2,4.53,5.43,5.13a2.49,2.49,0,0,0,1.81-.6q4.22-1.82,10.56-9.05a167.43,167.43,0,0,0,13-17.2q6.63-9.94,13-20.51t11.16-19a179.22,179.22,0,0,1,9.65-15.39,91.11,91.11,0,0,1,13.27-15.38h.61q.59-1.2,5.43-3.62a5.46,5.46,0,0,1,3.62,0c1.2.41,2.61.91,4.22,1.51a16.55,16.55,0,0,1,5.43,3.92.53.53,0,0,0,.6.6l1.21.61,3.62,5.43v.6A.54.54,0,0,1,1380.74,218.47Z"/></g></svg>